<?xml version="1.0" encoding="UTF-8" standalone="no"?>
<svg
   xmlns:dc="http://purl.org/dc/elements/1.1/"
   xmlns:cc="http://creativecommons.org/ns#"
   xmlns:rdf="http://www.w3.org/1999/02/22-rdf-syntax-ns#"
   xmlns:svg="http://www.w3.org/2000/svg"
   xmlns="http://www.w3.org/2000/svg"
   viewBox="0 0 1600 1600"
   height="1600"
   width="1600"
   xml:space="preserve"
   id="svg2"
   version="1.1"><metadata
     id="metadata8"><rdf:RDF><cc:Work
         rdf:about=""><dc:format>image/svg+xml</dc:format><dc:type
           rdf:resource="http://purl.org/dc/dcmitype/StillImage" /></cc:Work></rdf:RDF></metadata><defs
     id="defs6" /><g
     transform="matrix(1.3333333,0,0,-1.3333333,0,1600)"
     id="g10"><g
       transform="scale(0.1)"
       id="g12"><path
         id="path14"
         style="fill:#211c1d;fill-opacity:1;fill-rule:nonzero;stroke:none"
         d="m 4635.79,9326.05 h -425.46 c -5.65,0 -11.22,1.24 -16.33,3.63 -189.04,88.74 -311.17,280.6 -311.17,488.76 0,211.96 121.96,401.46 312.92,489.96 v 508 c 0,21.2 17.21,38.4 38.43,38.4 h 377.76 c 21.22,0 38.43,-17.2 38.43,-38.4 v -100.8 c 0,-21.3 -17.21,-38.5 -38.43,-38.5 -21.22,0 -38.43,17.2 -38.43,38.5 v 62.4 h -300.9 v -494.8 c 0,-15.7 -9.46,-29.7 -23.95,-35.6 -175.53,-71.5 -288.97,-239.9 -288.97,-429.16 0,-175.7 101.54,-337.89 259.39,-415.54 h 407.96 c 157.84,77.65 259.38,239.84 259.38,415.54 0,189.26 -113.43,357.66 -288.96,429.16 -14.49,5.9 -23.95,19.9 -23.95,35.6 v 287.2 c 0,21.2 17.21,38.4 38.43,38.4 21.22,0 38.43,-17.2 38.43,-38.4 v -262 c 190.96,-88.5 312.91,-278 312.91,-489.96 0,-208.16 -122.13,-400.02 -311.17,-488.76 -5.11,-2.39 -10.68,-3.63 -16.32,-3.63" /><path
         id="path16"
         style="fill:#bee6ea;fill-opacity:1;fill-rule:nonzero;stroke:none"
         d="m 4023.47,9941.69 c -12.03,-39.2 -18.41,-80.64 -18.41,-123.25 0,-155.04 87.69,-298.42 224.87,-370.17 h 386.25 c 137.17,71.75 224.87,215.13 224.87,370.17 0,42.61 -6.39,84.05 -18.42,123.25 h -799.16" /><path
         id="path18"
         style="fill:#ffffff;fill-opacity:1;fill-rule:nonzero;stroke:none"
         d="m 4277.67,9761.3 c 0,-56.79 -46.04,-102.83 -102.83,-102.83 -56.79,0 -102.83,46.04 -102.83,102.83 0,56.79 46.04,102.83 102.83,102.83 56.79,0 102.83,-46.04 102.83,-102.83" /><path
         id="path20"
         style="fill:#bee6ea;fill-opacity:1;fill-rule:nonzero;stroke:none"
         d="m 4601.24,10060.3 c 0,-36.8 -29.82,-66.58 -66.61,-66.58 -36.78,0 -66.61,29.78 -66.61,66.58 0,36.8 29.83,66.6 66.61,66.6 36.79,0 66.61,-29.8 66.61,-66.6" /><path
         id="path22"
         style="fill:#bee6ea;fill-opacity:1;fill-rule:nonzero;stroke:none"
         d="m 4424,10209.9 c 0,-21.5 -17.44,-38.9 -38.95,-38.9 -21.51,0 -38.95,17.4 -38.95,38.9 0,21.5 17.44,39 38.95,39 21.51,0 38.95,-17.5 38.95,-39" /><path
         id="path24"
         style="fill:#bee6ea;fill-opacity:1;fill-rule:nonzero;stroke:none"
         d="m 9555.15,4271.28 c 0,-175.44 111.68,-337.05 285.89,-415.85 h 463.56 c 174.2,78.8 285.8,240.41 285.8,415.85 0,82.12 -24,160.04 -66.5,228.05 h -902.25 c -42.47,-68.01 -66.5,-145.93 -66.5,-228.05" /><path
         id="path26"
         style="fill:#ffffff;fill-opacity:1;fill-rule:nonzero;stroke:none"
         d="m 10457.5,4378.31 c 0,-27.81 -22.6,-50.36 -50.4,-50.36 -27.8,0 -50.4,22.55 -50.4,50.36 0,27.82 22.6,50.37 50.4,50.37 27.8,0 50.4,-22.55 50.4,-50.37" /><path
         id="path28"
         style="fill:#bee6ea;fill-opacity:1;fill-rule:nonzero;stroke:none"
         d="m 10072.8,4752.15 c 0,-21.84 -17.7,-39.55 -39.5,-39.55 -21.9,0 -39.6,17.71 -39.6,39.55 0,21.84 17.7,39.55 39.6,39.55 21.8,0 39.5,-17.71 39.5,-39.55" /><path
         id="path30"
         style="fill:#bee6ea;fill-opacity:1;fill-rule:nonzero;stroke:none"
         d="m 10245.6,4626.22 c 0,-47.7 -38.7,-86.37 -86.4,-86.37 -47.7,0 -86.4,38.67 -86.4,86.37 0,47.71 38.7,86.38 86.4,86.38 47.7,0 86.4,-38.67 86.4,-86.38" /><path
         id="path32"
         style="fill:#ffffff;fill-opacity:1;fill-rule:nonzero;stroke:none"
         d="m 10407.1,4222.49 c 0,-56.5 -45.8,-102.3 -102.3,-102.3 -56.5,0 -102.3,45.8 -102.3,102.3 0,56.5 45.8,102.31 102.3,102.31 56.5,0 102.3,-45.81 102.3,-102.31" /><path
         id="path34"
         style="fill:#211c1d;fill-opacity:1;fill-rule:nonzero;stroke:none"
         d="m 10321.9,3733.2 h -498.26 c -5.08,0 -10.1,0.99 -14.79,2.96 -228.37,95.2 -375.93,305.26 -375.93,535.12 0,169.11 79.38,330.11 217.81,441.73 16.56,13.3 40.74,10.73 54.05,-5.8 13.32,-16.52 10.72,-40.73 -5.8,-54.05 -120.24,-96.94 -189.2,-236.13 -189.2,-381.88 0,-196.41 126.02,-376.67 321.69,-461.23 h 482.63 c 195.7,84.56 321.7,264.82 321.7,461.23 0,222.58 -156.8,418.01 -390.3,486.31 -16.3,4.79 -27.6,19.82 -27.6,36.88 v 312.14 c 0,21.22 17.2,38.43 38.4,38.43 h 36.5 c 11,0 20,8.99 20,20.05 0,11.04 -9,20.04 -20,20.04 h -439.98 c -11.04,0 -20.04,-9 -20.04,-20.04 0,-11.06 9,-20.05 20.04,-20.05 h 36.45 c 21.22,0 38.43,-17.21 38.43,-38.43 v -312.14 c 0,-17.07 -11.26,-32.1 -27.66,-36.89 -24.86,-7.27 -49.46,-16.25 -73.13,-26.7 -19.33,-8.56 -42.1,0.21 -50.69,19.65 -8.56,19.42 0.23,42.11 19.65,50.69 17.91,7.91 36.32,15.07 54.97,21.4 v 245.57 c -52.53,1.06 -94.91,44.12 -94.91,96.9 0,53.43 43.46,96.89 96.89,96.89 h 439.98 c 53.4,0 96.9,-43.46 96.9,-96.89 0,-52.76 -42.4,-95.83 -94.9,-96.9 v -245.55 c 251.1,-85.04 417.9,-303.32 417.9,-551.36 0,-229.86 -147.6,-439.92 -376,-535.12 -4.6,-1.97 -9.7,-2.96 -14.8,-2.96" /><path
         id="path36"
         style="fill:#211c1d;fill-opacity:1;fill-rule:nonzero;stroke:none"
         d="m 9967.43,5261.98 h 210.77 v 96.78 h -210.77 z m 249.17,-76.85 H 9929 c -21.22,0 -38.43,17.2 -38.43,38.43 v 173.63 c 0,21.22 17.21,38.43 38.43,38.43 h 287.6 c 21.2,0 38.4,-17.21 38.4,-38.43 v -173.63 c 0,-21.23 -17.2,-38.43 -38.4,-38.43" /><path
         id="path38"
         style="fill:#211c1d;fill-opacity:1;fill-rule:nonzero;stroke:none"
         d="M 10584.5,7147.55 H 9486.85 c -21.22,0 -38.42,17.21 -38.42,38.43 0,21.22 17.2,38.43 38.42,38.43 h 1059.45 c -2.8,105.45 -38.5,409.19 -345.6,521.18 -139.3,50.77 -314.66,26.95 -494.04,-67.05 -12.76,-6.69 -28.21,-5.68 -40.02,2.64 -6.52,4.62 -11.32,11.04 -13.94,18.29 -21.43,46.79 -51.71,74.36 -74.52,89.66 -27.86,-84.75 -42.91,-192.27 -45.13,-208.87 -0.69,-10.28 -5.51,-20.1 -13.8,-26.95 -124.73,-103.4 -215.65,-225.39 -247.15,-328.9 h 32.69 c 21.22,0 38.43,-17.21 38.43,-38.43 0,-21.22 -17.21,-38.43 -38.43,-38.43 h -80.61 c -11.12,0 -21.71,4.82 -29.02,13.21 -7.3,8.4 -10.6,19.55 -9.04,30.58 18.05,128.39 119.53,281.33 272.41,411.35 6.27,43.31 26.71,169.68 63.32,255.13 7.71,17.9 27.43,27.31 46.28,21.7 3.72,-1.1 82.6,-25.46 137.29,-115.62 187.06,89.57 371.08,108.82 521.58,53.9 420.9,-153.47 396.1,-629.42 395.8,-634.22 -1.2,-20.25 -18.1,-36.03 -38.3,-36.03" /><path
         id="path40"
         style="fill:#211c1d;fill-opacity:1;fill-rule:nonzero;stroke:none"
         d="m 9527.58,7352.12 c 0,-22.5 -18.24,-40.74 -40.74,-40.74 -22.5,0 -40.74,18.24 -40.74,40.74 0,22.5 18.24,40.74 40.74,40.74 22.5,0 40.74,-18.24 40.74,-40.74" /><path
         id="path42"
         style="fill:#211c1d;fill-opacity:1;fill-rule:nonzero;stroke:none"
         d="m 10115.4,6832.76 h -75.1 c -47.29,0 -85.81,38.52 -85.81,85.87 0,47.33 38.52,85.85 85.81,85.85 h 668.4 c 41.9,0 76,34.08 76,75.96 0,41.89 -34.1,75.98 -76,75.98 h -100.8 c -16.3,0 -29.6,13.23 -29.6,29.56 0,16.33 13.3,29.57 29.6,29.57 h 100.8 c 74.5,0 135.1,-60.61 135.1,-135.11 0,-74.49 -60.6,-135.09 -135.1,-135.09 h -668.4 c -14.7,0 -26.7,-11.98 -26.7,-26.72 0,-14.74 12,-26.74 26.7,-26.74 h 75.1 c 16.3,0 29.5,-13.24 29.5,-29.56 0,-16.33 -13.2,-29.57 -29.5,-29.57" /><path
         id="path44"
         style="fill:#211c1d;fill-opacity:1;fill-rule:nonzero;stroke:none"
         d="m 9573.54,10530.1 v -990 c 0,-72 58.58,-130.58 130.59,-130.58 h 571.07 c 72,0 130.6,58.58 130.6,130.58 v 990 z m 701.66,-1197.43 h -571.07 c -114.39,0 -207.45,93.05 -207.45,207.43 v 1028.4 c 0,21.2 17.21,38.4 38.43,38.4 h 909.09 c 21.3,0 38.5,-17.2 38.5,-38.4 V 9540.1 c 0,-114.38 -93.1,-207.43 -207.5,-207.43" /><path
         id="path46"
         style="fill:#bee6ea;fill-opacity:1;fill-rule:nonzero;stroke:none"
         d="m 9618.93,10261.4 v -721.3 c 0,-46.97 38.22,-85.2 85.2,-85.2 h 571.07 c 47,0 85.2,38.23 85.2,85.2 v 721.3 h -741.47" /><path
         id="path48"
         style="fill:#211c1d;fill-opacity:1;fill-rule:nonzero;stroke:none"
         d="m 10452.5,10530.1 h -925.65 c -61.95,0 -112.34,50.3 -112.34,112.3 0,61.9 50.39,112.3 112.34,112.3 h 730.55 c 21.3,0 38.5,-17.2 38.5,-38.4 0,-21.2 -17.2,-38.4 -38.5,-38.4 h -730.55 c -19.57,0 -35.48,-16 -35.48,-35.5 0,-19.6 15.91,-35.5 35.48,-35.5 h 925.65 c 19.6,0 35.5,15.9 35.5,35.5 0,19.5 -15.9,35.5 -35.5,35.5 h -48 c -21.2,0 -38.4,17.2 -38.4,38.4 0,21.2 17.2,38.4 38.4,38.4 h 48 c 62,0 112.4,-50.4 112.4,-112.3 0,-62 -50.4,-112.3 -112.4,-112.3" /><path
         id="path50"
         style="fill:#211c1d;fill-opacity:1;fill-rule:nonzero;stroke:none"
         d="m 10283.9,9566.23 c -10.6,0 -19.2,8.6 -19.2,19.21 v 857.36 c 0,10.6 8.6,19.2 19.2,19.2 10.6,0 19.2,-8.6 19.2,-19.2 v -857.36 c 0,-10.61 -8.6,-19.21 -19.2,-19.21" /><path
         id="path52"
         style="fill:#211c1d;fill-opacity:1;fill-rule:nonzero;stroke:none"
         d="m 10274.7,10367.8 h -170.6 c -10.6,0 -19.2,8.6 -19.2,19.3 0,10.6 8.6,19.2 19.2,19.2 h 170.6 c 10.6,0 19.2,-8.6 19.2,-19.2 0,-10.7 -8.6,-19.3 -19.2,-19.3" /><path
         id="path54"
         style="fill:#211c1d;fill-opacity:1;fill-rule:nonzero;stroke:none"
         d="m 10274.7,10242.2 h -170.6 c -10.6,0 -19.2,8.6 -19.2,19.2 0,10.7 8.6,19.3 19.2,19.3 h 170.6 c 10.6,0 19.2,-8.6 19.2,-19.3 0,-10.6 -8.6,-19.2 -19.2,-19.2" /><path
         id="path56"
         style="fill:#211c1d;fill-opacity:1;fill-rule:nonzero;stroke:none"
         d="m 10274.7,10116.6 h -170.6 c -10.6,0 -19.2,8.6 -19.2,19.2 0,10.6 8.6,19.2 19.2,19.2 h 170.6 c 10.6,0 19.2,-8.6 19.2,-19.2 0,-10.6 -8.6,-19.2 -19.2,-19.2" /><path
         id="path58"
         style="fill:#211c1d;fill-opacity:1;fill-rule:nonzero;stroke:none"
         d="m 10274.7,10116.6 h -170.6 c -10.6,0 -19.2,8.6 -19.2,19.2 0,10.6 8.6,19.2 19.2,19.2 h 170.6 c 10.6,0 19.2,-8.6 19.2,-19.2 0,-10.6 -8.6,-19.2 -19.2,-19.2" /><path
         id="path60"
         style="fill:#211c1d;fill-opacity:1;fill-rule:nonzero;stroke:none"
         d="m 10274.7,9991.01 h -170.6 c -10.6,0 -19.2,8.6 -19.2,19.19 0,10.6 8.6,19.2 19.2,19.2 h 170.6 c 10.6,0 19.2,-8.6 19.2,-19.2 0,-10.59 -8.6,-19.19 -19.2,-19.19" /><path
         id="path62"
         style="fill:#211c1d;fill-opacity:1;fill-rule:nonzero;stroke:none"
         d="m 10274.7,9865.38 h -170.6 c -10.6,0 -19.2,8.61 -19.2,19.22 0,10.61 8.6,19.21 19.2,19.21 h 170.6 c 10.6,0 19.2,-8.6 19.2,-19.21 0,-10.61 -8.6,-19.22 -19.2,-19.22" /><path
         id="path64"
         style="fill:#211c1d;fill-opacity:1;fill-rule:nonzero;stroke:none"
         d="m 10274.7,9865.38 h -170.6 c -10.6,0 -19.2,8.61 -19.2,19.22 0,10.61 8.6,19.21 19.2,19.21 h 170.6 c 10.6,0 19.2,-8.6 19.2,-19.21 0,-10.61 -8.6,-19.22 -19.2,-19.22" /><path
         id="path66"
         style="fill:#211c1d;fill-opacity:1;fill-rule:nonzero;stroke:none"
         d="m 10274.7,9739.78 h -170.6 c -10.6,0 -19.2,8.6 -19.2,19.21 0,10.61 8.6,19.21 19.2,19.21 h 170.6 c 10.6,0 19.2,-8.6 19.2,-19.21 0,-10.61 -8.6,-19.21 -19.2,-19.21" /><path
         id="path68"
         style="fill:#211c1d;fill-opacity:1;fill-rule:nonzero;stroke:none"
         d="m 10274.7,9614.15 h -170.6 c -10.6,0 -19.2,8.61 -19.2,19.22 0,10.61 8.6,19.21 19.2,19.21 h 170.6 c 10.6,0 19.2,-8.6 19.2,-19.21 0,-10.61 -8.6,-19.22 -19.2,-19.22" /><path
         id="path70"
         style="fill:#211c1d;fill-opacity:1;fill-rule:nonzero;stroke:none"
         d="m 9848.4,11121.9 c -64.04,0 -116.15,-52.1 -116.15,-116.2 0,-64 52.11,-116.1 116.15,-116.1 64.04,0 116.15,52.1 116.15,116.1 0,64.1 -52.11,116.2 -116.15,116.2 z m 0,-282.6 c -91.75,0 -166.39,74.7 -166.39,166.4 0,91.8 74.64,166.4 166.39,166.4 91.76,0 166.4,-74.6 166.4,-166.4 0,-91.7 -74.64,-166.4 -166.4,-166.4" /><path
         id="path72"
         style="fill:#211c1d;fill-opacity:1;fill-rule:nonzero;stroke:none"
         d="m 10153.1,11185.9 c -21.4,0 -38.9,-17.5 -38.9,-38.9 0,-21.5 17.5,-38.9 38.9,-38.9 21.5,0 38.9,17.4 38.9,38.9 0,21.4 -17.4,38.9 -38.9,38.9 z m 0,-119.2 c -44.3,0 -80.3,36 -80.3,80.3 0,44.3 36,80.3 80.3,80.3 44.3,0 80.3,-36 80.3,-80.3 0,-44.3 -36,-80.3 -80.3,-80.3" /><path
         id="path74"
         style="fill:#211c1d;fill-opacity:1;fill-rule:nonzero;stroke:none"
         d="m 1559.17,9326.05 c -156.18,0 -283.23,127.05 -283.23,283.22 v 907.93 c 0,21.2 17.2,38.4 38.42,38.4 21.23,0 38.43,-17.2 38.43,-38.4 v -907.93 c 0,-113.79 92.58,-206.37 206.38,-206.37 113.8,0 206.38,92.58 206.38,206.37 V 10778 h -412.76 v -121.7 c 0,-21.2 -17.2,-38.4 -38.43,-38.4 -21.22,0 -38.42,17.2 -38.42,38.4 v 160.1 c 0,21.2 17.2,38.4 38.42,38.4 h 489.62 c 21.22,0 38.42,-17.2 38.42,-38.4 V 9609.27 c 0,-156.17 -127.05,-283.22 -283.23,-283.22" /><path
         id="path76"
         style="fill:#bee6ea;fill-opacity:1;fill-rule:nonzero;stroke:none"
         d="m 1398.17,10280 v -670.74 c 0,-88.76 72.23,-160.99 161.01,-160.99 88.78,0 161,72.23 161,160.99 V 10280 h -322.01" /><path
         id="path78"
         style="fill:#ffffff;fill-opacity:1;fill-rule:nonzero;stroke:none"
         d="m 1554.71,10141.5 c 0,-28.2 -22.87,-51.1 -51.08,-51.1 -28.21,0 -51.08,22.9 -51.08,51.1 0,28.2 22.87,51.1 51.08,51.1 28.21,0 51.08,-22.9 51.08,-51.1" /><path
         id="path80"
         style="fill:#ffffff;fill-opacity:1;fill-rule:nonzero;stroke:none"
         d="m 1604.04,10066.6 c 0,-14.1 -11.43,-25.5 -25.54,-25.5 -14.1,0 -25.54,11.4 -25.54,25.5 0,14.2 11.44,25.6 25.54,25.6 14.11,0 25.54,-11.4 25.54,-25.6" /><path
         id="path82"
         style="fill:#bee6ea;fill-opacity:1;fill-rule:nonzero;stroke:none"
         d="m 1582.23,10491.4 c 0,-35.8 -29.03,-64.8 -64.84,-64.8 -35.81,0 -64.84,29 -64.84,64.8 0,35.8 29.03,64.9 64.84,64.9 35.81,0 64.84,-29.1 64.84,-64.9" /><path
         id="path84"
         style="fill:#bee6ea;fill-opacity:1;fill-rule:nonzero;stroke:none"
         d="m 1671.31,10623.9 c 0,-17.9 -14.51,-32.4 -32.42,-32.4 -17.9,0 -32.42,14.5 -32.42,32.4 0,17.9 14.52,32.4 32.42,32.4 17.91,0 32.42,-14.5 32.42,-32.4" /><path
         id="path86"
         style="fill:#211c1d;fill-opacity:1;fill-rule:nonzero;stroke:none"
         d="m 1398.17,11236.9 c -51.89,0 -94.08,-42.2 -94.08,-94.1 0,-51.8 42.19,-94 94.08,-94 51.88,0 94.09,42.2 94.09,94 0,51.9 -42.21,94.1 -94.09,94.1 z m 0,-238.4 c -79.59,0 -144.35,64.8 -144.35,144.3 0,79.6 64.76,144.4 144.35,144.4 79.6,0 144.36,-64.8 144.36,-144.4 0,-79.5 -64.76,-144.3 -144.36,-144.3" /><path
         id="path88"
         style="fill:#211c1d;fill-opacity:1;fill-rule:nonzero;stroke:none"
         d="m 1720.18,11029 c -21.46,0 -38.91,-17.5 -38.91,-39 0,-21.4 17.45,-38.9 38.91,-38.9 21.46,0 38.91,17.5 38.91,38.9 0,21.5 -17.45,39 -38.91,39 z m 0,-119.3 c -44.28,0 -80.31,36.1 -80.31,80.3 0,44.3 36.03,80.4 80.31,80.4 44.28,0 80.32,-36.1 80.32,-80.4 0,-44.2 -36.04,-80.3 -80.32,-80.3" /><path
         id="path90"
         style="fill:#211c1d;fill-opacity:1;fill-rule:nonzero;stroke:none"
         d="m 1638.89,11433.1 c -28.13,0 -50.99,-22.9 -50.99,-51 0,-28.2 22.86,-51.1 50.99,-51.1 28.12,0 51,22.9 51,51.1 0,28.1 -22.88,51 -51,51 z m 0,-143.5 c -50.95,0 -92.39,41.5 -92.39,92.5 0,50.9 41.44,92.4 92.39,92.4 50.94,0 92.4,-41.5 92.4,-92.4 0,-51 -41.46,-92.5 -92.4,-92.5" /><path
         id="path92"
         style="fill:#bee6ea;fill-opacity:1;fill-rule:nonzero;stroke:none"
         d="m 7585.03,2182.69 c 54.75,-186.59 -52.13,-382.29 -238.72,-436.99 -186.6,-54.8 -382.26,52.1 -437.01,238.7 -54.76,186.6 52.12,382.26 238.72,437.01 186.6,54.76 382.25,-52.12 437.01,-238.72" /><path
         id="path94"
         style="fill:#ffffff;fill-opacity:1;fill-rule:nonzero;stroke:none"
         d="m 7094.19,2148.23 c 9.27,-31.59 -8.83,-64.72 -40.42,-73.99 -31.59,-9.27 -64.71,8.83 -73.98,40.42 -9.27,31.59 8.83,64.71 40.42,73.98 31.58,9.27 64.71,-8.82 73.98,-40.41" /><path
         id="path96"
         style="fill:#ffffff;fill-opacity:1;fill-rule:nonzero;stroke:none"
         d="m 7152.86,2092.08 c 3.9,-13.27 -3.7,-27.18 -16.98,-31.08 -13.27,-3.89 -27.18,3.71 -31.08,16.98 -3.89,13.27 3.71,27.19 16.98,31.08 13.27,3.9 27.19,-3.7 31.08,-16.98" /><path
         id="path98"
         style="fill:#211c1d;fill-opacity:1;fill-rule:nonzero;stroke:none"
         d="m 7383.08,1620.4 c -255.42,-75 -524.17,71.8 -599.12,327.2 -74.95,255.44 71.86,524.19 327.28,599.14 62.51,18.34 126.77,23.9 190.99,16.51 21.08,-2.43 36.21,-21.49 33.78,-42.58 -2.41,-21.11 -21.45,-36.2 -42.58,-33.78 -53.93,6.21 -107.96,1.54 -160.55,-13.9 -214.74,-63.01 -338.18,-288.99 -275.17,-503.69 63.01,-214.8 288.99,-338.2 503.73,-275.2 214.74,63 338.19,289 275.18,503.73 -28.16,95.95 -90.41,177.81 -175.28,230.49 -18.05,11.19 -23.58,34.89 -12.39,52.92 11.2,18.03 34.91,23.57 52.92,12.38 100.97,-62.65 175.01,-160.02 208.5,-274.15 74.95,-255.37 -71.88,-524.17 -327.29,-599.07" /><path
         id="path100"
         style="fill:#211c1d;fill-opacity:1;fill-rule:nonzero;stroke:none"
         d="m 7322.79,1607 174.22,-593.7 c 9.57,-32.601 43.88,-51.402 76.49,-41.8 32.59,9.602 51.33,43.9 41.77,76.5 l -174.22,593.7 c -38.32,-17 -76.9,-28.3 -118.26,-34.7 z m 272.35,-709.301 c -73.28,-21.5 -150.37,20.699 -171.87,93.903 L 7236.09,1629.5 c -3.3,11.2 -1.3,23.3 5.44,32.9 6.74,9.6 17.45,15.6 29.17,16.3 63.37,3.7 120.06,20.4 175.44,51.4 10.19,5.8 22.47,6.6 33.32,2.1 10.85,-4.4 19.08,-13.5 22.38,-24.7 l 187.18,-637.9 c 21.5,-73.299 -20.62,-150.401 -93.88,-171.901" /><path
         id="path102"
         style="fill:#211c1d;fill-opacity:1;fill-rule:nonzero;stroke:none"
         d="m 4446.06,7492.94 c -75.31,0 -136.6,-61.28 -136.6,-136.59 0,-75.32 61.29,-136.61 136.6,-136.61 75.31,0 136.59,61.29 136.59,136.61 0,75.31 -61.28,136.59 -136.59,136.59 z m 0,-339.88 c -112.08,0 -203.28,91.19 -203.28,203.29 0,112.08 91.2,203.28 203.28,203.28 112.08,0 203.28,-91.2 203.28,-203.28 0,-112.1 -91.2,-203.29 -203.28,-203.29" /><path
         id="path104"
         style="fill:#211c1d;fill-opacity:1;fill-rule:nonzero;stroke:none"
         d="m 4446.06,6597.5 c -179.96,0 -320.92,333.32 -320.92,758.85 0,425.52 140.96,758.84 320.92,758.84 179.96,0 320.92,-333.32 320.92,-758.84 0,-197.89 -30.73,-384.45 -86.57,-525.3 -6.79,-17.11 -26.14,-25.53 -43.29,-18.71 -17.12,6.79 -25.5,26.16 -18.71,43.28 52.81,133.23 81.89,311.06 81.89,500.73 0,327.37 -104.42,692.15 -254.24,692.15 -149.82,0 -254.24,-364.78 -254.24,-692.15 0,-327.38 104.42,-692.17 254.24,-692.17 47.24,0 86.88,41.45 111.82,76.2 10.73,14.97 31.58,18.38 46.53,7.66 14.97,-10.74 18.39,-31.57 7.65,-46.53 -48.81,-68.05 -106.21,-104.01 -166,-104.01" /><path
         id="path106"
         style="fill:#211c1d;fill-opacity:1;fill-rule:nonzero;stroke:none"
         d="m 4880.53,6887.5 c -157.75,0 -373.35,65.3 -592.72,189.65 -172.17,97.57 -319.29,216.3 -414.31,334.33 -101.59,126.2 -132.71,239.51 -87.62,319.05 9.09,16.02 29.41,21.63 45.45,12.56 16.02,-9.08 21.64,-29.43 12.56,-45.45 -30.22,-53.33 -0.5,-142.4 81.57,-244.34 89.85,-111.63 230.21,-224.62 395.24,-318.14 284.79,-161.42 653.63,-250.44 727.52,-120.11 30.23,53.33 0.51,142.39 -81.56,244.33 -89.85,111.64 -230.21,224.61 -395.24,318.14 -243.48,137.99 -502.23,207.71 -643.9,173.42 -17.88,-4.34 -35.91,6.67 -40.25,24.58 -4.34,17.89 6.67,35.92 24.57,40.25 159.43,38.51 431.25,-32.18 692.47,-180.23 172.16,-97.57 319.29,-216.3 414.31,-334.34 101.58,-126.2 132.71,-239.51 87.62,-319.04 -36.15,-63.79 -117.26,-94.66 -225.71,-94.66" /><path
         id="path108"
         style="fill:#211c1d;fill-opacity:1;fill-rule:nonzero;stroke:none"
         d="m 4011.59,6887.5 c -108.48,0 -189.55,30.87 -225.71,94.66 -45.09,79.53 -13.97,192.84 87.62,319.04 95.02,118.04 242.14,236.77 414.31,334.34 370.21,209.84 729.68,251.52 818.43,94.99 27.95,-49.33 26.73,-113.04 -3.55,-184.25 -7.18,-16.99 -26.8,-24.89 -43.72,-17.65 -16.96,7.2 -24.85,26.78 -17.65,43.72 15.23,35.83 28.78,86.66 6.9,125.29 -73.9,130.38 -442.71,41.33 -727.52,-120.12 -165.03,-93.53 -305.39,-206.5 -395.24,-318.14 -82.07,-101.94 -111.79,-191 -81.57,-244.33 73.94,-130.41 442.74,-41.32 727.53,120.11 168.27,95.37 310.26,210.39 399.83,323.89 11.42,14.44 32.4,16.95 46.83,5.53 14.46,-11.41 16.93,-32.38 5.52,-46.83 -94.79,-120.13 -243.69,-241.08 -419.29,-340.6 -219.36,-124.34 -434.99,-189.64 -592.72,-189.65" /><path
         id="path110"
         style="fill:#bee6ea;fill-opacity:1;fill-rule:nonzero;stroke:none"
         d="m 5161.98,7714.08 c 0,-46.81 -37.94,-84.75 -84.75,-84.75 -46.81,0 -84.76,37.94 -84.76,84.75 0,46.81 37.95,84.76 84.76,84.76 46.81,0 84.75,-37.95 84.75,-84.76" /><path
         id="path112"
         style="fill:#bee6ea;fill-opacity:1;fill-rule:nonzero;stroke:none"
         d="m 4146.78,7271.59 c 0,-46.81 -37.95,-84.76 -84.76,-84.76 -46.81,0 -84.75,37.95 -84.75,84.76 0,46.81 37.94,84.75 84.75,84.75 46.81,0 84.76,-37.94 84.76,-84.75" /><path
         id="path114"
         style="fill:#bee6ea;fill-opacity:1;fill-rule:nonzero;stroke:none"
         d="m 4530.81,8081.84 c 0,-46.81 -37.94,-84.75 -84.75,-84.75 -46.81,0 -84.76,37.94 -84.76,84.75 0,46.81 37.95,84.76 84.76,84.76 46.81,0 84.75,-37.95 84.75,-84.76" /><path
         id="path116"
         style="fill:#211c1d;fill-opacity:1;fill-rule:nonzero;stroke:none"
         d="m 9990.25,2087.37 c -5.11,0 -9.27,-4.16 -9.27,-9.26 0,-5.11 4.16,-9.26 9.27,-9.26 h 403.55 c 5.1,0 9.2,4.15 9.2,9.26 0,5.1 -4.1,9.26 -9.2,9.26 h -68.5 c -21.2,0 -38.4,17.21 -38.4,38.43 v 374.52 c 0,52.29 -42.6,94.85 -94.9,94.85 -52.3,0 -94.8,-42.56 -94.8,-94.85 V 2125.8 c 0,-21.22 -17.2,-38.43 -38.5,-38.43 z M 10393.8,1992 h -403.55 c -47.49,0 -86.12,38.62 -86.12,86.11 0,47.48 38.63,86.11 86.12,86.11 h 30.05 v 336.1 c 0,94.69 77,171.71 171.7,171.71 94.7,0 171.7,-77.02 171.7,-171.71 v -336.1 h 30.1 c 47.5,0 86.1,-38.63 86.1,-86.11 0,-47.49 -38.6,-86.11 -86.1,-86.11" /><path
         id="path118"
         style="fill:#211c1d;fill-opacity:1;fill-rule:nonzero;stroke:none"
         d="m 10192,1064.6 c -55.4,0 -100.4,45.1 -100.4,100.5 v 59.2 c -44.5,32.1 -71.3,83.3 -71.3,138.6 v 667.52 c 0,21.22 17.2,38.43 38.4,38.43 h 266.6 c 21.2,0 38.4,-17.21 38.4,-38.43 V 1874 c 0,-21.3 -17.2,-38.5 -38.4,-38.5 -21.2,0 -38.4,17.2 -38.4,38.5 v 118 h -189.7 v -629.1 c 0,-34.8 19.5,-66.7 50.8,-83.4 12.6,-6.6 20.4,-19.7 20.4,-33.9 v -80.5 c 0,-13 10.6,-23.6 23.6,-23.6 13,0 23.6,10.6 23.6,23.6 v 80.5 c 0,14.2 7.8,27.3 20.4,33.9 31.4,16.7 50.9,48.6 50.9,83.4 v 399.9 c 0,21.2 17.2,38.4 38.4,38.4 21.2,0 38.4,-17.2 38.4,-38.4 v -399.9 c 0,-55.3 -26.8,-106.5 -71.3,-138.6 v -59.2 c 0,-55.4 -45,-100.5 -100.4,-100.5" /><path
         id="path120"
         style="fill:#bee6ea;fill-opacity:1;fill-rule:nonzero;stroke:none"
         d="m 10192,995.602 -59.4,-117.903 c -4.7,-16 -2.8,-33.097 5.3,-47.699 v 0 c 23.5,-42.5 84.7,-42.5 108.3,0 v 0 c 8,14.602 9.9,31.699 5.2,47.699 l -59.4,117.903" /><path
         id="path122"
         style="fill:#3e636b;fill-opacity:1;fill-rule:nonzero;stroke:none"
         d="m 4443.31,4237.58 c -9.7,0 -17.57,7.87 -17.57,17.58 v 658.49 c 0,9.72 7.87,17.59 17.57,17.59 9.7,0 17.57,-7.87 17.57,-17.59 v -658.49 c 0,-9.71 -7.87,-17.58 -17.57,-17.58" /><path
         id="path124"
         style="fill:#211c1d;fill-opacity:1;fill-rule:nonzero;stroke:none"
         d="m 4443.34,5184.5 c -20.9,-27.64 -49.83,-70.25 -61.05,-107.23 -12.21,-40.26 -8.1,-85.4 9.97,-109.76 11.36,-15.31 28.1,-22.76 51.18,-22.76 24.54,0 42.08,7.63 53.63,23.36 17.81,24.26 20.79,67 7.62,108.87 -11.08,35.19 -39.2,77.84 -61.35,107.52 z m 0.1,-301.94 c -54.2,0 -84.91,26.05 -101.13,47.91 -36.4,49.07 -33.27,119.48 -19.52,164.85 22.23,73.31 94.23,155.96 97.28,159.45 5.91,6.7 14.42,10.58 23.37,10.58 0.04,0 0.07,0 0.11,0 8.97,-0.02 17.51,-3.96 23.4,-10.74 3.01,-3.49 74.14,-86.16 97.05,-159 19.21,-61.03 12.77,-123.96 -16.8,-164.27 -16.33,-22.25 -47.58,-48.78 -103.76,-48.78" /><path
         id="path126"
         style="fill:#211c1d;fill-opacity:1;fill-rule:nonzero;stroke:none"
         d="m 4049.38,4539.15 -244.72,-489.44 c -8.6,-17.21 -7.74,-36.46 2.37,-52.8 10.11,-16.36 26.93,-25.74 46.15,-25.74 h 1180.27 c 19.22,0 36.03,9.38 46.14,25.74 10.11,16.34 10.97,35.59 2.38,52.8 l -244.72,489.44 z M 5033.45,3900.9 H 3853.18 c -43.48,0 -83.08,22.07 -105.93,59.05 -22.86,36.99 -24.9,82.29 -5.45,121.17 l 254.44,508.87 c 5.95,11.91 18.12,19.43 31.42,19.43 h 831.3 c 13.3,0 25.47,-7.52 31.42,-19.43 l 254.44,-508.87 c 19.45,-38.88 17.41,-84.18 -5.45,-121.17 -22.85,-36.98 -62.45,-59.05 -105.92,-59.05" /><path
         id="path128"
         style="fill:#211c1d;fill-opacity:1;fill-rule:nonzero;stroke:none"
         d="m 4835.33,4539.15 h -784.04 c -65.8,0 -119.33,53.53 -119.33,119.34 0,65.79 53.53,119.32 119.33,119.32 h 632.39 c 19.4,0 35.13,-15.73 35.13,-35.13 0,-19.41 -15.73,-35.14 -35.13,-35.14 h -632.39 c -27.04,0 -49.06,-22.02 -49.06,-49.05 0,-27.05 22.02,-49.07 49.06,-49.07 h 784.04 c 27.05,0 49.06,22.02 49.06,49.07 0,27.03 -22.01,49.05 -49.06,49.05 h -46.41 c -19.4,0 -35.13,15.73 -35.13,35.14 0,19.4 15.73,35.13 35.13,35.13 h 46.41 c 65.8,0 119.33,-53.53 119.33,-119.32 0,-65.81 -53.53,-119.34 -119.33,-119.34" /><path
         id="path130"
         style="fill:#bee6ea;fill-opacity:1;fill-rule:nonzero;stroke:none"
         d="m 3831.01,4036.51 c -5.37,-10.75 -1.63,-19.72 1.09,-24.11 2.7,-4.38 9.05,-11.73 21.07,-11.73 h 1180.28 c 12.02,0 18.37,7.35 21.07,11.73 2.72,4.39 6.46,13.36 1.09,24.11 l -109.33,218.66 H 3940.35 l -109.34,-218.66" /><path
         id="path132"
         style="fill:#bee6ea;fill-opacity:1;fill-rule:nonzero;stroke:none"
         d="m 1265,1836.6 c 0,-160.1 80.67,-309.6 212.81,-398.5 h 535.31 c 132.12,88.9 212.79,238.4 212.79,398.5 0,115.1 -41.71,222.75 -111.99,306.97 H 1377 c -70.29,-84.22 -112,-191.87 -112,-306.97" /><path
         id="path134"
         style="fill:#ffffff;fill-opacity:1;fill-rule:nonzero;stroke:none"
         d="m 1614.12,1928.4 c 0,-59.3 -48.08,-107.4 -107.39,-107.4 -59.31,0 -107.39,48.1 -107.39,107.4 0,59.3 48.08,107.39 107.39,107.39 59.31,0 107.39,-48.09 107.39,-107.39" /><path
         id="path136"
         style="fill:#ffffff;fill-opacity:1;fill-rule:nonzero;stroke:none"
         d="m 1700.02,1790.8 c 0,-29.6 -24.04,-53.7 -53.69,-53.7 -29.66,0 -53.7,24.1 -53.7,53.7 0,29.7 24.04,53.7 53.7,53.7 29.65,0 53.69,-24 53.69,-53.7" /><path
         id="path138"
         style="fill:#bee6ea;fill-opacity:1;fill-rule:nonzero;stroke:none"
         d="m 1870.41,2282.98 c 0,-35.68 -28.93,-64.61 -64.61,-64.61 -35.69,0 -64.61,28.93 -64.61,64.61 0,35.69 28.92,64.62 64.61,64.62 35.68,0 64.61,-28.93 64.61,-64.62" /><path
         id="path140"
         style="fill:#211c1d;fill-opacity:1;fill-rule:nonzero;stroke:none"
         d="M 2221.84,6860.95 H 986.238 c -78.746,0 -142.82,64.07 -142.82,142.82 v 848.14 c 0,78.74 64.074,142.82 142.82,142.82 h 980.702 c 13.99,0 25.33,-11.35 25.33,-25.33 0,-13.99 -11.34,-25.33 -25.33,-25.33 H 986.238 c -50.808,0 -92.16,-41.35 -92.16,-92.16 v -848.14 c 0,-50.81 41.352,-92.17 92.16,-92.17 H 2221.84 c 50.81,0 92.17,41.36 92.17,92.17 v 848.14 c 0,50.81 -41.36,92.16 -92.17,92.16 h -99.75 c -13.99,0 -25.33,11.34 -25.33,25.33 0,13.98 11.34,25.33 25.33,25.33 h 99.75 c 78.75,0 142.82,-64.08 142.82,-142.82 v -848.14 c 0,-78.75 -64.07,-142.82 -142.82,-142.82" /><path
         id="path142"
         style="fill:#211c1d;fill-opacity:1;fill-rule:nonzero;stroke:none"
         d="m 1356.12,6694.02 c -1.22,0 -2.21,-0.99 -2.21,-2.21 v -14.9 c 0,-1.22 0.99,-2.21 2.21,-2.21 h 495.84 c 1.22,0 2.23,0.99 2.23,2.21 v 14.9 c 0,1.22 -1.01,2.21 -2.23,2.21 z m 495.84,-69.97 h -495.84 c -29.15,0 -52.86,23.71 -52.86,52.86 v 14.9 c 0,29.15 23.71,52.87 52.86,52.87 h 495.84 c 29.16,0 52.89,-23.72 52.89,-52.87 v -14.9 c 0,-29.15 -23.73,-52.86 -52.89,-52.86" /><path
         id="path144"
         style="fill:#211c1d;fill-opacity:1;fill-rule:nonzero;stroke:none"
         d="m 1458.94,6758.3 h 290.22 v 100.84 h -290.22 z m 315.55,-50.66 h -340.88 c -13.99,0 -25.33,11.34 -25.33,25.33 v 151.5 c 0,13.99 11.34,25.33 25.33,25.33 h 340.88 c 13.99,0 25.33,-11.34 25.33,-25.33 v -151.5 c 0,-13.99 -11.34,-25.33 -25.33,-25.33" /><path
         id="path146"
         style="fill:#211c1d;fill-opacity:1;fill-rule:nonzero;stroke:none"
         d="M 998.074,7141.29 H 2210.01 v 693.24 H 998.074 Z M 2235.34,7090.64 H 972.746 c -13.988,0 -25.328,11.34 -25.328,25.33 v 743.89 c 0,13.99 11.34,25.33 25.328,25.33 H 2235.34 c 13.98,0 25.33,-11.34 25.33,-25.33 v -743.89 c 0,-13.99 -11.35,-25.33 -25.33,-25.33" /><path
         id="path148"
         style="fill:#211c1d;fill-opacity:1;fill-rule:nonzero;stroke:none"
         d="m 894.133,7000.49 c 1.73,-49.3 42.379,-88.89 92.105,-88.89 H 2221.84 c 49.73,0 90.38,39.59 92.11,88.89 z M 2221.84,6860.95 H 986.238 c -78.746,0 -142.82,64.07 -142.82,142.82 v 22.05 c 0,13.99 11.344,25.33 25.332,25.33 h 1470.59 c 13.98,0 25.32,-11.34 25.32,-25.33 v -22.05 c 0,-78.75 -64.07,-142.82 -142.82,-142.82" /><path
         id="path150"
         style="fill:#bee6ea;fill-opacity:1;fill-rule:nonzero;stroke:none"
         d="m 7654.32,4374.68 c -6.17,57.38 -27.83,110.6 -61.87,154.73 h -490.16 c -34.04,-44.13 -55.7,-97.35 -61.87,-154.73 h 613.9" /><path
         id="path152"
         style="fill:#bee6ea;fill-opacity:1;fill-rule:nonzero;stroke:none"
         d="m 7055.1,4240.96 c 11.1,-32.14 27.61,-62.48 49.27,-90.1 l 3.85,-4.9 c 3.23,-3.9 6.74,-7.8 10.88,-12.41 l 228.27,-264.85 229.22,265.93 c 3.11,3.46 6.22,6.93 9.85,11.23 l 3.93,5 c 21.65,27.62 38.17,57.96 49.27,90.1 H 7055.1" /><path
         id="path154"
         style="fill:#211c1d;fill-opacity:1;fill-rule:nonzero;stroke:none"
         d="m 6941.8,4346.3 c -17.23,0 -31.23,-14.01 -31.23,-31.23 v -14.48 c 0,-17.23 14,-31.24 31.23,-31.24 h 811.14 c 17.23,0 31.24,14.01 31.24,31.24 v 14.48 c 0,17.22 -14.01,31.23 -31.24,31.23 z m 811.14,-133.7 H 6941.8 c -48.53,0 -87.99,39.46 -87.99,87.99 v 14.48 c 0,48.52 39.46,87.99 87.99,87.99 h 811.14 c 48.53,0 87.99,-39.47 87.99,-87.99 v -14.48 c 0,-48.53 -39.46,-87.99 -87.99,-87.99" /><path
         id="path156"
         style="fill:#211c1d;fill-opacity:1;fill-rule:nonzero;stroke:none"
         d="m 6949.03,3734.02 c -15.67,0 -28.38,12.71 -28.38,28.38 v 478.57 c 0,15.68 12.71,28.38 28.38,28.38 15.67,0 28.38,-12.7 28.38,-28.38 V 3762.4 c 0,-15.67 -12.71,-28.38 -28.38,-28.38" /><path
         id="path158"
         style="fill:#211c1d;fill-opacity:1;fill-rule:nonzero;stroke:none"
         d="m 7745.71,3734.02 c -15.67,0 -28.37,12.71 -28.37,28.38 v 478.57 c 0,15.68 12.7,28.38 28.37,28.38 15.67,0 28.38,-12.7 28.38,-28.38 V 3762.4 c 0,-15.67 -12.71,-28.38 -28.38,-28.38" /><path
         id="path160"
         style="fill:#211c1d;fill-opacity:1;fill-rule:nonzero;stroke:none"
         d="m 7347.37,3635.88 c -15.67,0 -28.38,12.71 -28.38,28.38 v 576.71 c 0,15.68 12.71,28.38 28.38,28.38 15.67,0 28.38,-12.7 28.38,-28.38 v -576.71 c 0,-15.67 -12.71,-28.38 -28.38,-28.38" /><path
         id="path162"
         style="fill:#211c1d;fill-opacity:1;fill-rule:nonzero;stroke:none"
         d="m 7281.83,5256.29 h 131.08 v 100.08 h -131.08 z m 159.46,-56.76 h -187.84 c -15.67,0 -28.38,12.71 -28.38,28.38 v 156.84 c 0,15.67 12.71,28.37 28.38,28.37 h 187.84 c 15.67,0 28.38,-12.7 28.38,-28.37 v -156.84 c 0,-15.67 -12.71,-28.38 -28.38,-28.38" /><path
         id="path164"
         style="fill:#211c1d;fill-opacity:1;fill-rule:nonzero;stroke:none"
         d="m 7512.14,4712.7 v 268.41 c 0,15.67 -12.7,28.38 -28.38,28.38 v 0 c -15.67,0 -28.38,-12.71 -28.38,-28.38 v -288.04 c 0,-11.58 7.41,-21.61 18.21,-25.79 113.7,-44.05 196.67,-145.77 218.14,-264.22 h -688.72 c 21.47,118.45 104.44,220.17 218.14,264.22 10.8,4.18 18.21,14.21 18.21,25.79 v 499.64 h 216.02 v -94.27 c 0,-15.67 12.71,-28.38 28.38,-28.38 v 0 c 15.68,0 28.38,12.71 28.38,28.38 v 122.65 c 0,15.67 -12.7,28.37 -28.38,28.37 h -272.78 c -15.67,0 -28.38,-12.7 -28.38,-28.37 V 4712.7 c -133.9,-59.55 -227.39,-189.2 -240.27,-335.53 -0.7,-7.93 1.97,-15.8 7.34,-21.66 5.37,-5.86 12.98,-9.21 20.94,-9.21 h 753.53 c 7.95,0 15.56,3.35 20.93,9.21 5.38,5.86 8.04,13.73 7.34,21.66 -12.88,146.33 -106.37,275.98 -240.27,335.53" /><path
         id="path166"
         style="fill:#211c1d;fill-opacity:1;fill-rule:nonzero;stroke:none"
         d="m 7055.74,4181.97 c 8.76,-16.11 18.8,-31.36 30.02,-45.65 l 4.8,-6.13 c 2.82,-3.36 6.41,-7.38 10.17,-11.51 l 246.64,-286.2 247.65,287.3 c 3.25,3.63 6.17,6.92 9.5,10.86 l 4.54,5.76 c 11.18,14.24 21.18,29.48 29.94,45.57 z m 291.63,-443.28 -292.57,339.45 c -3.85,4.26 -8,8.91 -11.85,13.55 l -5.35,6.78 c -24.31,30.98 -43.88,65.69 -58.22,103.2 l -15.85,41.54 h 767.68 l -15.85,-41.54 c -14.34,-37.51 -33.91,-72.22 -58.21,-103.2 l -5.23,-6.61 c -4.37,-5.2 -7.66,-8.9 -10.9,-12.51 l -293.65,-340.66" /><path
         id="path168"
         style="fill:#211c1d;fill-opacity:1;fill-rule:nonzero;stroke:none"
         d="m 7276.02,10845.7 c -11.49,0 -22.91,-2.8 -33.44,-8.1 -17.66,-9 -30.78,-24.3 -36.93,-43.1 -6.15,-18.8 -4.61,-38.9 4.34,-56.5 8.98,-17.7 24.27,-30.8 43.09,-37 38.77,-12.6 80.76,8.6 93.47,47.5 v 0 c 6.16,18.8 4.62,38.9 -4.34,56.5 -8.95,17.7 -24.27,30.8 -43.08,36.9 -7.58,2.5 -15.36,3.8 -23.11,3.8 z m 0,-193 c -12.21,0 -24.6,1.9 -36.83,5.9 -30.15,9.9 -54.65,30.9 -69.01,59.2 -14.35,28.3 -16.82,60.5 -6.96,90.6 20.33,62.3 87.48,96.4 149.79,76 62.24,-20.4 96.33,-87.6 75.97,-149.8 v 0 c -16.35,-50 -62.99,-81.9 -112.96,-81.9" /><path
         id="path170"
         style="fill:#bee6ea;fill-opacity:1;fill-rule:nonzero;stroke:none"
         d="m 7325.32,10755.4 c -8.88,-27.2 -38.13,-42 -65.31,-33.1 -27.18,8.9 -42.02,38.1 -33.13,65.3 8.89,27.2 38.13,42 65.31,33.1 27.19,-8.9 42.02,-38.1 33.13,-65.3" /><path
         id="path172"
         style="fill:#211c1d;fill-opacity:1;fill-rule:nonzero;stroke:none"
         d="m 7222.3,11100.1 82.66,-27.1 27.04,82.7 -82.68,27.1 z m 96.95,-77.6 c -2.3,0 -4.63,0.4 -6.94,1.2 l -125.11,40.9 c -11.7,3.8 -18.11,16.4 -14.27,28.1 l 34.46,105.5 c 7.35,22.5 31.6,34.8 54.24,27.5 l 85.81,-28.1 c 10.9,-3.5 19.79,-11.1 24.99,-21.4 5.2,-10.2 6.09,-21.9 2.52,-32.8 l -34.48,-105.5 c -3.07,-9.4 -11.83,-15.4 -21.22,-15.4" /><path
         id="path174"
         style="fill:#211c1d;fill-opacity:1;fill-rule:nonzero;stroke:none"
         d="m 6913.88,10292.5 -5.12,-15.6 162.11,-53.7 c 0.06,0 0.1,0 0.16,0 0.27,0 0.59,0.2 0.67,0.4 l 5.1,15.7 z m 157.15,-117.4 c -4.99,0 -10.09,0.8 -15.11,2.4 l -161.68,52.9 c -25.52,8.3 -39.51,35.9 -31.19,61.4 l 12.59,38.5 c 4.13,12.6 17.73,19.6 30.32,15.4 l 208.63,-68.2 c 12.62,-4.1 19.52,-17.7 15.39,-30.3 l -12.58,-38.5 c -6.72,-20.5 -25.86,-33.6 -46.37,-33.6" /><path
         id="path176"
         style="fill:#211c1d;fill-opacity:1;fill-rule:nonzero;stroke:none"
         d="m 6475.15,10198 -7.8,-23.9 579.27,-164.7 c 0.01,0 0.01,0 0.01,0 0.36,-0.1 1.09,0.3 1.23,0.7 l 6.52,23.2 z m 571.8,-222.97 c -3.23,0 -6.47,0.45 -9.67,1.36 l -578.57,163.41 c -9.08,2.6 -16.63,8.5 -21.24,16.8 -4.62,8.2 -5.74,17.8 -3.16,26.8 l 6.56,23.2 c 2.55,9.1 8.49,16.6 16.74,21.2 8.22,4.7 17.76,5.8 26.88,3.2 l 578.54,-163.4 c 9.08,-2.6 16.62,-8.5 21.24,-16.8 4.62,-8.2 5.75,-17.8 3.17,-26.9 l -6.53,-23.1 c -2.58,-9.1 -8.53,-16.65 -16.77,-21.26 -5.33,-2.98 -11.23,-4.51 -17.19,-4.51" /><path
         id="path178"
         style="fill:#211c1d;fill-opacity:1;fill-rule:nonzero;stroke:none"
         d="m 7243.05,9382.1 h 281.25 v 279.63 c 0,77.54 -63.07,140.62 -140.62,140.62 -77.54,0 -140.63,-63.08 -140.63,-140.62 z m 305.3,-48.1 H 7219 c -13.28,0 -24.05,10.77 -24.05,24.05 v 303.68 c 0,104.06 84.67,188.71 188.73,188.71 104.06,0 188.72,-84.65 188.72,-188.71 v -303.68 c 0,-13.28 -10.77,-24.05 -24.05,-24.05" /><path
         id="path180"
         style="fill:#211c1d;fill-opacity:1;fill-rule:nonzero;stroke:none"
         d="m 7107.12,10230.6 c -2.51,0 -5.03,0.4 -7.48,1.2 l -208.62,68.2 c -12.61,4.1 -19.5,17.7 -15.38,30.3 l 188.99,578.1 c 4.12,12.6 17.66,19.5 30.32,15.4 12.63,-4.1 19.52,-17.7 15.39,-30.3 l -181.52,-555.3 162.93,-53.2 124.8,381.7 c -20.44,11.6 -37.03,28.9 -47.9,50.3 -14.55,28.7 -17.07,61.4 -7.07,91.9 18.09,55.4 72.71,88.5 128.36,82.3 l 35.47,108.5 c 1.41,4.3 1.05,8.9 -1.01,13 -2.05,4 -5.57,7 -9.88,8.4 l -130.59,42.7 c -8.89,2.9 -18.55,-1.9 -21.45,-10.9 l -15.22,-46.5 c -4.13,-12.6 -17.63,-19.5 -30.34,-15.4 -12.61,4.1 -19.51,17.7 -15.38,30.3 l 15.23,46.6 c 11.17,34.1 48.01,52.8 82.1,41.6 l 130.6,-42.7 c 34.11,-11.1 52.81,-47.9 41.65,-82.1 l -42.19,-129 c -4.13,-12.6 -17.63,-19.5 -30.32,-15.4 -18.38,6 -38,4.5 -55.26,-4.2 -17.24,-8.8 -30.05,-23.7 -36.06,-42.1 -6.02,-18.4 -4.51,-38 4.25,-55.3 8.73,-17.2 23.68,-30 42.06,-36 6.07,-2 11.1,-6.3 13.98,-12 2.89,-5.7 3.39,-12.3 1.41,-18.3 l -139.01,-425.2 c -1.99,-6.1 -6.29,-11.1 -11.99,-14 -3.39,-1.7 -7.13,-2.6 -10.87,-2.6" /><path
         id="path182"
         style="fill:#211c1d;fill-opacity:1;fill-rule:nonzero;stroke:none"
         d="m 7370.7,10754.9 21.99,-3.8 z m 158.97,-976.57 c 8.82,-11.02 16.35,-22.97 22.47,-35.64 142.15,105.79 226.2,272.01 226.2,450.01 0,244.7 -160.12,461.3 -392.07,534.4 -0.69,-1.7 -1.41,-3.4 -2.17,-5 219.85,-70.4 370.9,-275.2 370.9,-508.3 0,-174.1 -83.74,-335.03 -225.33,-435.47 z m 11.99,-92.69 c -2.57,0 -5.13,0.44 -7.61,1.34 -6.68,2.42 -11.81,7.89 -13.82,14.71 -7.16,24.47 -20.93,46.69 -39.83,64.25 -5.07,4.69 -7.67,11.47 -7.04,18.36 0.62,6.88 4.39,13.08 10.21,16.81 142.01,90.71 226.78,244.99 226.78,412.69 0,222.9 -150.73,417.5 -366.56,473.5 -7.45,1.9 -13.39,7.6 -15.7,14.9 -2.31,7.3 -0.67,15.4 4.34,21.2 6.38,7.5 11.12,15.9 14.12,25 0.94,3 1.38,5.9 1.88,8.8 1.08,6.2 4.85,12.4 10.15,15.8 5.28,3.4 11.92,5.1 17.98,3.5 262.86,-71.5 446.42,-311.6 446.42,-583.8 0,-202.31 -100.52,-390.44 -268.89,-503.29 -3.73,-2.49 -8.05,-3.77 -12.43,-3.77" /><path
         id="path184"
         style="fill:#bee6ea;fill-opacity:1;fill-rule:nonzero;stroke:none"
         d="m 7461.08,9652.88 c 0,-42.75 -34.65,-77.4 -77.4,-77.4 -42.75,0 -77.4,34.65 -77.4,77.4 0,42.75 34.65,77.41 77.4,77.41 42.75,0 77.4,-34.66 77.4,-77.41" /><path
         id="path186"
         style="fill:#211c1d;fill-opacity:1;fill-rule:nonzero;stroke:none"
         d="m 6762.59,9866.21 c 101.38,-141.85 259.98,-227.64 434.09,-233.98 v 29.5 c 0,5.97 0.32,12.02 0.94,18.13 -153.47,6.69 -298.18,80.41 -394.46,200.99 -12.56,-7.03 -26.28,-12.01 -40.57,-14.64 z m 454.9,-279.01 c -211.11,0 -403.6,107.95 -514.93,288.75 -4.57,7.41 -4.4,16.81 0.41,24.05 4.82,7.25 13.35,11.02 22.01,9.73 11.17,-1.73 18.16,-1.56 28.39,0.2 15.41,2.77 29.18,9.1 40.55,18.45 4.75,3.87 10.93,5.68 16.96,4.89 6.08,-0.77 11.58,-3.99 15.21,-8.94 92.07,-125.39 239.44,-200.28 394.25,-200.33 0.57,0.03 3.24,0.18 3.49,0.18 6.71,0.55 13.5,-3.02 17.81,-8.47 4.29,-5.43 5.83,-12.54 4.14,-19.27 -2.95,-11.84 -4.46,-23.51 -4.46,-34.71 v -52.13 c 0,-12.04 -9.54,-21.91 -21.58,-22.3 -0.24,-0.02 -2,-0.1 -2.25,-0.1" /><path
         id="path188"
         style="fill:#211c1d;fill-opacity:1;fill-rule:nonzero;stroke:none"
         d="m 6681.61,10062.5 c -19.34,-16.5 -30.64,-40.7 -30.64,-66.46 0,-48.24 39.26,-87.5 87.51,-87.5 48.25,0 87.51,39.26 87.51,87.5 0,9.06 -1.5,18.16 -4.45,26.96 z m 56.87,-198.61 c -72.87,0 -132.15,59.29 -132.15,132.15 0,43.86 21.73,84.86 58.12,109.46 5.47,3.7 12.28,4.8 18.6,3 l 88.4,-24.9 v 0 l 72.83,-20.6 c 6.31,-1.8 11.52,-6.3 14.24,-12.2 8.03,-17.6 12.11,-36.1 12.11,-54.76 0,-72.86 -59.28,-132.15 -132.15,-132.15" /><path
         id="path190"
         style="fill:#211c1d;fill-opacity:1;fill-rule:nonzero;stroke:none"
         d="m 7701.35,9382.1 h -768.54 c -13.28,0 -24.05,-10.77 -24.05,-24.05 v 0 c 0,-13.28 10.77,-24.05 24.05,-24.05 h 768.54 c 41.9,0 75.9,-34.4 75.25,-76.44 -0.15,-9.84 -8.81,-17.47 -18.65,-17.47 H 6645.3 c -9.83,0 -18.48,7.62 -18.64,17.45 -0.65,42.05 33.35,76.46 75.26,76.46 h 70.06 c 13.29,0 24.05,10.77 24.05,24.05 v 0 c 0,13.28 -10.76,24.05 -24.05,24.05 h -70.06 c -68.55,0 -124.22,-56.21 -123.35,-124.95 0.45,-36.22 30.52,-65.16 66.73,-65.16 h 1112.65 c 36.22,0 66.3,28.95 66.75,65.17 0.86,68.74 -54.81,124.94 -123.35,124.94" /><path
         id="path192"
         style="fill:#211c1d;fill-opacity:1;fill-rule:nonzero;stroke:none"
         d="m 4970.39,1868.9 h -370.76 c -13.5,0 -24.45,10.9 -24.45,24.4 0,13.5 10.95,24.5 24.45,24.5 h 370.76 c 13.5,0 24.45,-11 24.45,-24.5 0,-13.5 -10.95,-24.4 -24.45,-24.4" /><path
         id="path194"
         style="fill:#211c1d;fill-opacity:1;fill-rule:nonzero;stroke:none"
         d="m 4060.52,1585.6 h 285.27 V 1916 h -285.27 z m 309.72,-48.9 h -334.17 c -13.5,0 -24.45,11 -24.45,24.5 v 379.2 c 0,13.5 10.95,24.5 24.45,24.5 h 334.17 c 13.5,0 24.45,-11 24.45,-24.5 v -379.2 c 0,-13.5 -10.95,-24.5 -24.45,-24.5" /><path
         id="path196"
         style="fill:#211c1d;fill-opacity:1;fill-rule:nonzero;stroke:none"
         d="m 4970.39,1726.4 h -370.76 c -13.5,0 -24.45,10.9 -24.45,24.4 0,13.5 10.95,24.5 24.45,24.5 h 370.76 c 13.5,0 24.45,-11 24.45,-24.5 0,-13.5 -10.95,-24.4 -24.45,-24.4" /><path
         id="path198"
         style="fill:#211c1d;fill-opacity:1;fill-rule:nonzero;stroke:none"
         d="m 4970.39,1536.7 h -207.63 c -13.5,0 -24.45,11 -24.45,24.5 0,13.5 10.95,24.4 24.45,24.4 h 207.63 c 13.5,0 24.45,-10.9 24.45,-24.4 0,-13.5 -10.95,-24.5 -24.45,-24.5" /><path
         id="path200"
         style="fill:#211c1d;fill-opacity:1;fill-rule:nonzero;stroke:none"
         d="m 4326.31,2277.96 v -113.81 c 0,-37.47 30.48,-67.94 67.95,-67.94 h 229.97 c 37.46,0 67.95,30.47 67.95,67.94 v 113.81 z m 297.92,-230.65 h -229.97 c -64.43,0 -116.85,52.4 -116.85,116.84 v 138.26 c 0,13.5 10.95,24.45 24.45,24.45 h 414.77 c 13.5,0 24.44,-10.95 24.44,-24.45 v -138.26 c 0,-64.44 -52.41,-116.84 -116.84,-116.84" /><path
         id="path202"
         style="fill:#211c1d;fill-opacity:1;fill-rule:nonzero;stroke:none"
         d="m 5081.54,2196.77 h -36.49 c -13.51,0 -24.45,-10.94 -24.45,-24.44 v 0 c 0,-13.51 10.94,-24.45 24.45,-24.45 h 36.48 c 29.55,0 53.49,-23.95 53.49,-53.49 V 1407.2 c 0,-29.5 -23.95,-53.5 -53.5,-53.5 H 3936.97 c -29.55,0 -53.51,24 -53.51,53.5 v 687.19 c 0,29.54 23.95,53.49 53.49,53.49 h 341.59 c 7.94,-56.76 56.81,-100.57 115.72,-100.57 h 229.97 c 58.91,0 107.78,43.81 115.71,100.57 h 193.33 c 13.51,0 24.45,10.94 24.45,24.45 v 0 c 0,13.5 -10.94,24.44 -24.45,24.44 h -216.64 c -13.51,0 -24.45,-10.94 -24.45,-24.44 v -8.18 c 0,-37.52 -30.42,-67.94 -67.95,-67.94 h -229.97 c -37.53,0 -67.95,30.42 -67.95,67.94 v 8.18 c 0,13.5 -10.94,24.44 -24.45,24.44 h -364.91 c -56.54,0 -102.38,-45.84 -102.38,-102.38 V 1407.2 c 0,-56.5 45.85,-102.4 102.4,-102.4 h 1144.56 c 56.55,0 102.39,45.9 102.39,102.4 v 687.19 c 0,56.54 -45.84,102.38 -102.38,102.38" /><path
         id="path204"
         style="fill:#bee6ea;fill-opacity:1;fill-rule:nonzero;stroke:none"
         d="m 7007.99,7609.43 c 0,-36.5 -29.59,-66.09 -66.08,-66.09 -36.5,0 -66.09,29.59 -66.09,66.09 0,36.49 29.59,66.08 66.09,66.08 36.49,0 66.08,-29.59 66.08,-66.08" /><path
         id="path206"
         style="fill:#211c1d;fill-opacity:1;fill-rule:nonzero;stroke:none"
         d="m 7214.59,7475.22 c 0,-30.7 -24.89,-55.58 -55.58,-55.58 -30.7,0 -55.58,24.88 -55.58,55.58 0,30.69 24.88,55.58 55.58,55.58 30.69,0 55.58,-24.89 55.58,-55.58" /><path
         id="path208"
         style="fill:#211c1d;fill-opacity:1;fill-rule:nonzero;stroke:none"
         d="m 7235.46,7011.1 c 0,-20.97 -16.99,-37.96 -37.96,-37.96 -20.97,0 -37.96,16.99 -37.96,37.96 0,20.97 16.99,37.96 37.96,37.96 20.97,0 37.96,-16.99 37.96,-37.96" /><path
         id="path210"
         style="fill:#bee6ea;fill-opacity:1;fill-rule:nonzero;stroke:none"
         d="m 7420.78,7713.46 c 0,-36.49 -29.58,-66.08 -66.08,-66.08 -36.5,0 -66.08,29.59 -66.08,66.08 0,36.5 29.58,66.09 66.08,66.09 36.5,0 66.08,-29.59 66.08,-66.09" /><path
         id="path212"
         style="fill:#211c1d;fill-opacity:1;fill-rule:nonzero;stroke:none"
         d="m 7217.16,7779.55 c 0,-18.25 -14.79,-33.05 -33.04,-33.05 -18.25,0 -33.04,14.8 -33.04,33.05 0,18.24 14.79,33.04 33.04,33.04 18.25,0 33.04,-14.8 33.04,-33.04" /><path
         id="path214"
         style="fill:#211c1d;fill-opacity:1;fill-rule:nonzero;stroke:none"
         d="m 7610.85,7413.86 c 0,-57.7 -46.78,-104.47 -104.48,-104.47 -57.7,0 -104.47,46.77 -104.47,104.47 0,57.7 46.77,104.47 104.47,104.47 57.7,0 104.48,-46.77 104.48,-104.47" /><path
         id="path216"
         style="fill:#bee6ea;fill-opacity:1;fill-rule:nonzero;stroke:none"
         d="m 7203.31,7257.15 c 0,-28.85 -23.38,-52.24 -52.23,-52.24 -28.85,0 -52.24,23.39 -52.24,52.24 0,28.85 23.39,52.24 52.24,52.24 28.85,0 52.23,-23.39 52.23,-52.24" /><path
         id="path218"
         style="fill:#bee6ea;fill-opacity:1;fill-rule:nonzero;stroke:none"
         d="m 7481.48,7105.56 c 0,-22.8 -18.48,-41.28 -41.28,-41.28 -22.8,0 -41.28,18.48 -41.28,41.28 0,22.8 18.48,41.28 41.28,41.28 22.8,0 41.28,-18.48 41.28,-41.28" /><path
         id="path220"
         style="fill:#211c1d;fill-opacity:1;fill-rule:nonzero;stroke:none"
         d="m 6967.98,7257.15 c 0,-33.47 -27.13,-60.6 -60.6,-60.6 -33.46,0 -60.59,27.13 -60.59,60.6 0,33.46 27.13,60.59 60.59,60.59 33.47,0 60.6,-27.13 60.6,-60.59" /><path
         id="path222"
         style="fill:#211c1d;fill-opacity:1;fill-rule:nonzero;stroke:none"
         d="m 7223.49,7919.34 c -290.29,0 -526.47,-236.18 -526.47,-526.47 0,-290.31 236.18,-526.48 526.47,-526.48 290.31,0 526.48,236.17 526.48,526.48 0,290.29 -236.17,526.47 -526.48,526.47 z m 0,-1121.5 c -328.09,0 -595.01,266.92 -595.01,595.03 0,328.09 266.92,595.02 595.01,595.02 328.11,0 595.03,-266.93 595.03,-595.02 0,-328.11 -266.92,-595.03 -595.03,-595.03" /><path
         id="path224"
         style="fill:#211c1d;fill-opacity:1;fill-rule:nonzero;stroke:none"
         d="M 1958.18,2480.31 V 4563.3 c 0,25.47 -20.65,46.12 -46.13,46.12 v 0 c -25.47,0 -46.12,-20.65 -46.12,-46.12 v -509.65 c -0.05,-0.83 -0.25,-1.62 -0.25,-2.46 V 2445.95 c 0,-20.82 13.88,-39.11 33.97,-44.59 254.22,-69.28 431.78,-301.52 431.78,-564.76 0,-206.5 -109.99,-398.6 -287.85,-504 h -596.25 c -177.84,105.4 -287.83,297.4 -287.83,504 0,263.24 177.56,495.48 431.76,564.76 20.09,5.48 33.97,23.77 33.97,44.59 v 1715.19 265.04 92.49 379.96 h 240.7 v -74.69 c 0,-25.48 20.65,-46.13 46.12,-46.13 v 0 c 25.48,0 46.13,20.65 46.13,46.13 v 74.69 31.67 c 0,33.45 -27.13,60.58 -60.58,60.58 h -31.67 -240.7 -31.92 c -33.45,0 -60.58,-27.13 -60.58,-60.58 v -31.67 -426.2 -311.29 -1680.83 C 1256.77,2389.28 1067,2129.51 1067,1836.6 c 0,-243.9 132.37,-470.3 345.42,-590.7 6.83,-3.9 14.63,-5.8 22.48,-5.8 h 621.11 c 7.85,0 15.65,1.9 22.48,5.8 213.07,120.4 345.44,346.8 345.44,590.7 0,292.91 -189.78,552.68 -465.75,643.71" /></g></g></svg>